# xmcd
#
# Track frame offsets:
#	150
#	15365
#	29075
#	42998
#	56878
#	69055
#	82235
#	93610
#	107993
#	120628
#	135793
#	149730
#	161498
#	175515
# Disc length: 2529 seconds
# Revision: 21
# Processed by: cddbd v1.5.1PL2 Copyright (c) Steve Scherf et al.
#
# Submitted via: libkcddb 0.31
#
DISCID=be09df0e
DTITLE=Various Artist - Mama Let Me Lay It On You 1926-1936
DYEAR=1900
DGENRE=Unknown
TTITLE0=Black And Tan (1936) - Blind Boy Fuller
TTITLE1=Good Gal (1932) - Josh White
TTITLE2=Mama Let Me Lay It On You (1936) - Walter Coleman
TTITLE3=Whiskey And Gin Blues (1926) - Bobby Leecan and Robert Cooksey
TTITLE4=Insurance Policy Blues (1936) - Smith And Harper
TTITLE5=Every Day In The Week Blues (928) - Pink Anderson and Simmie Dooly
TTITLE6=Poor Girl (1936) - Smith And Harper
TTITLE7=South Carolina Rag (1930) - Willie Walker
TTITLE8=Chump Man Blues (1929) - Blake Blind
TTITLE9=Itching Heel (1930) - Irene Scruggs
TTITLE10=Vampire Women (1933) - Spark Plug Smith
TTITLE11=Wilson Dam (1926) - Leola B. Wilson
TTITLE12=Nineteen Women Blues (1936) - Charlie Manson
TTITLE13=Sweet Jivin' Mama (1929) - Blake Blind
EXTD=
EXTT0=
EXTT1=
EXTT2=
EXTT3=
EXTT4=
EXTT5=
EXTT6=
EXTT7=
EXTT8=
EXTT9=
EXTT10=
EXTT11=
EXTT12=
EXTT13=
PLAYORDER=
